<svg xmlns="http://www.w3.org/2000/svg" width="800" height="600" viewBox="0 0 800 600" role="img" aria-label="Кресло и зеркало в зале барбершопа">
  <defs>
    <linearGradient id="bg" x1="0" y1="0" x2="0" y2="1">
      <stop offset="0" stop-color="#2b3442"/>
      <stop offset="1" stop-color="#1e2733"/>
    </linearGradient>
    <linearGradient id="mirror" x1="0" y1="0" x2="1" y2="1">
      <stop offset="0" stop-color="#c7d0da"/>
      <stop offset="1" stop-color="#9aa6b3"/>
    </linearGradient>
    <linearGradient id="seat" x1="0" y1="0" x2="0" y2="1">
      <stop offset="0" stop-color="#6b7280"/>
      <stop offset="1" stop-color="#374151"/>
    </linearGradient>
  </defs>
  <rect width="800" height="600" fill="url(#bg)"/>
  <rect y="420" width="800" height="180" fill="#141a22"/>
  <path d="M0 420 Q200 412 400 422 Q600 432 800 420 L800 430 Q600 440 400 430 Q200 420 0 430 Z" fill="#c2410c" opacity="0.55"/>
  <rect x="240" y="70" width="320" height="330" rx="12" fill="#0f141b"/>
  <rect x="254" y="84" width="292" height="302" rx="8" fill="url(#mirror)"/>
  <rect x="254" y="84" width="292" height="302" rx="8" fill="#ffffff" opacity="0.08"/>
  <g fill="#c2410c">
    <circle cx="400" cy="92" r="7"/>
    <circle cx="400" cy="116" r="7"/>
    <circle cx="400" cy="140" r="7"/>
    <circle cx="400" cy="164" r="7"/>
    <circle cx="400" cy="188" r="7"/>
    <circle cx="400" cy="212" r="7"/>
    <circle cx="400" cy="236" r="7"/>
    <circle cx="400" cy="260" r="7"/>
    <circle cx="400" cy="284" r="7"/>
    <circle cx="400" cy="308" r="7"/>
    <circle cx="400" cy="332" r="7"/>
    <circle cx="400" cy="356" r="7"/>
    <circle cx="400" cy="380" r="7"/>
  </g>
  <ellipse cx="400" cy="452" rx="110" ry="18" fill="#000" opacity="0.4"/>
  <rect x="300" y="430" width="200" height="14" rx="7" fill="#c2410c"/>
  <path d="M310 430 q-14 -24 10 -44 q22 -18 6 -34 q8 -6 16 -4 q10 4 2 18 q-16 8 -6 26 q14 18 -8 38 Z" fill="#141a22" opacity="0.6"/>
  <path d="M490 430 q14 -24 -10 -44 q-22 -18 -6 -34 q-8 -6 -16 -4 q-10 4 -2 18 q16 8 6 26 q-14 18 8 38 Z" fill="#141a22" opacity="0.6"/>
  <path d="M348 430 v-150 q0 -30 52 -30 q52 0 52 30 v150 Z" fill="url(#seat)"/>
  <path d="M368 244 v-14 a32 32 0 0 1 64 0 v14" fill="#4b5563"/>
  <rect x="388" y="228" width="24" height="16" rx="4" fill="#c2410c"/>
  <path d="M352 430 l-22 44 h140 l-22 -44 Z" fill="#374151"/>
  <rect x="388" y="470" width="24" height="40" rx="5" fill="#4b5563"/>
  <ellipse cx="400" cy="514" rx="70" ry="12" fill="#c2410c"/>
</svg>
